<svg width="117" height="51" viewBox="0 0 117 51" fill="none" xmlns="http://www.w3.org/2000/svg">
<path d="M30.8272 21.1552H26.6919L32.143 0.478516H35.1505L40.6017 21.1552H36.4663L33.6468 8.37325L30.8272 21.1552Z" fill="white"/>
<path d="M13.9098 17.0194L0 6.11719V13.26L9.77444 20.2149L0 27.1698V34.3127L13.9098 23.4104V17.0194Z" fill="white"/>
<path d="M24.0603 0.290039H21.4288C19.925 4.73866 16.9175 15.9667 16.9175 25.29C16.9175 34.6133 19.925 45.8414 21.4288 50.29H24.0603C22.9952 46.5306 20.8648 36.2675 20.8648 25.29C20.8648 14.3126 22.9952 4.04944 24.0603 0.290039Z" fill="white"/>
<path d="M44.3608 39.1995H48.1202V32.0566H44.3608V39.1995Z" fill="white"/>
<path d="M85.3383 21.1552H89.4736L84.0225 0.478516H81.015L75.5639 21.1552H79.6992L82.5187 8.37325L85.3383 21.1552Z" fill="white"/>
<path d="M102.256 17.0194L116.166 6.11719V13.26L106.391 20.2149L116.166 27.1698V34.3127L102.256 23.4104V17.0194Z" fill="white"/>
<path d="M92.1052 0.290039H94.7368C96.2405 4.73866 99.248 15.9667 99.248 25.29C99.248 34.6133 96.2405 45.8414 94.7368 50.29H92.1052C93.1704 46.5306 95.3007 36.2675 95.3007 25.29C95.3007 14.3126 93.1704 4.04944 92.1052 0.290039Z" fill="white"/>
<path d="M71.8047 39.1995H68.0453V32.0566H71.8047V39.1995Z" fill="white"/>
<path d="M50.0001 45.0273L50.0001 49.9146L66.1655 49.9146L66.1655 45.0273L50.0001 45.0273Z" fill="white"/>
<path d="M64.2859 24.5379C64.2859 28.1714 61.5087 31.1169 58.0829 31.1169C54.6571 31.1169 51.8799 28.1714 51.8799 24.5379C51.8799 20.9045 54.6571 17.959 58.0829 17.959C61.5087 17.959 64.2859 20.9045 64.2859 24.5379ZM56.2981 24.5379C56.2981 25.5834 57.0972 26.4309 58.0829 26.4309C59.0686 26.4309 59.8677 25.5834 59.8677 24.5379C59.8677 23.4925 59.0686 22.6449 58.0829 22.6449C57.0972 22.6449 56.2981 23.4925 56.2981 24.5379Z" fill="white"/>
</svg>
